<?xml version="1.0" encoding="utf-8"?>
<!-- Generator: Adobe Illustrator 17.1.0, SVG Export Plug-In . SVG Version: 6.00 Build 0)  -->
<!DOCTYPE svg PUBLIC "-//W3C//DTD SVG 1.1//EN" "http://www.w3.org/Graphics/SVG/1.1/DTD/svg11.dtd">
<svg version="1.1" id="Layer_1" xmlns="http://www.w3.org/2000/svg" xmlns:xlink="http://www.w3.org/1999/xlink" x="0px" y="0px"
	 viewBox="0 0 900 900" enable-background="new 0 0 900 900" xml:space="preserve">
<g id="Layer_1_1_" display="none">
	<g id="pdmFQj_1_" display="inline">
		
			<image overflow="visible" enable-background="new    " width="1287" height="1029" id="pdmFQj_2_" xlink:href="75B645C23EEE8077.jpeg"  transform="matrix(0.9336 0 0 0.9341 -142.1277 -18.2553)">
		</image>
	</g>
</g>
<g id="Layer_2">
	<path fill="#00253E" d="M112.3,205.2l25.3-35.3c0,0,11.3-11.7,29-11.7h193c0,0,17.7,0.7,25,12l25.7,35l416,0.3
		c0,0,18.3,1.7,18.7,16.3v45.7h15.3c0,0,16.3,0.7,16,18.7L846,788.5c0,0-1,16.3-17.3,18.3H93.3c0,0-21.3,3-22.3-20.3l-29.3-454
		c0,0,3.7-16,22-14.3h8.7v-97.3c0,0,4.7-15.7,17.7-15.3L112.3,205.2z"/>
	<path fill="#E6E7E8" d="M177.1,179.2V71.6l568.5-0.4v63.3H444.7c0,0-3.7-0.7-7.9,4.4l-23.4,40.3H177.1z"/>
	<path fill="#F1F2F2" d="M136.8,257V135.2l643.8-0.5v71.7H439.8c0,0-4.2-0.8-8.9,5L404.4,257H136.8z"/>
	<path fill="#FFFFFF" d="M110.5,318.2V196.3l696.5-0.5v71.7H438.3c0,0-4.5-0.8-9.7,5L400,318.2H110.5z"/>
	<path fill="#00253E" d="M72.3,318.2H400l28.7-45.7c0,0,3.7-5.2,9.7-5H845h15.3c0,0,17.1,0.8,15.8,21.5L846,788.5
		c0,0-0.7,15.8-17.3,18.3H93.3c0,0-20.8,3.5-22.3-20.3l-29.3-454c0,0,3.2-12.2,16.9-14.3H72.3z"/>
	<g enable-background="new    ">
		<path fill="#FFFFFF" d="M176.9,376.7h30.2c23.8,0,28.2,15.8,28.2,42.8c0,13.3,2,43.8-28.9,43.8h-29.5V376.7z M195,450h8.8
			c11,0,13.2-8.3,13.2-30c0-16,0-30-12.6-30H195V450z"/>
		<path fill="#FFFFFF" d="M295,452.1c0,3.7,0.5,7.6,0.8,11.3h-15.7l-0.7-8h-0.2c-3.6,6.2-8.5,9.2-15.8,9.2
			c-11.8,0-16.1-8.8-16.1-19.3c0-20,15.5-20.9,31.2-20.6v-4.7c0-5.2-0.7-8.9-6.8-8.9c-5.9,0-6.4,4.4-6.4,9.2h-16.6
			c0-7.3,2.3-12,6.2-14.8c3.8-2.9,9.4-4,15.8-4c21.5,0,24.2,9.2,24.2,20.3V452.1z M263.8,444.5c0,4.3,0.7,9.6,6.2,9.6
			c10,0,8.4-13.4,8.4-20C270,434.4,263.8,433.7,263.8,444.5z"/>
		<path fill="#FFFFFF" d="M302.2,402.7h6.8v-9.6l16.9-7.6v17.2h8.8v10.4H326v32.4c0,4.6-0.1,7.6,5.4,7.6c1.1,0,2.2,0,3-0.2v10.4
			c-2.3,0.2-4.7,0.6-8.8,0.6c-14.6,0-16.6-9.7-16.6-13.4v-37.3h-6.8V402.7z"/>
		<path fill="#FFFFFF" d="M388.4,452.1c0,3.7,0.5,7.6,0.8,11.3h-15.7l-0.7-8h-0.2c-3.6,6.2-8.5,9.2-15.8,9.2
			c-11.8,0-16.1-8.8-16.1-19.3c0-20,15.5-20.9,31.2-20.6v-4.7c0-5.2-0.7-8.9-6.8-8.9c-5.9,0-6.4,4.4-6.4,9.2H342
			c0-7.3,2.3-12,6.2-14.8c3.8-2.9,9.4-4,15.8-4c21.5,0,24.2,9.2,24.2,20.3V452.1z M357.2,444.5c0,4.3,0.7,9.6,6.2,9.6
			c10,0,8.4-13.4,8.4-20C363.4,434.4,357.2,433.7,357.2,444.5z"/>
	</g>
	<g enable-background="new    ">
		<path fill="#FFFFFF" d="M194.3,598.5h-18.1v-86.6h33.5c12.4,0,20.3,7.9,20.3,22.7c0,11-4.3,19.3-16.1,21.2v0.2
			c4,0.5,15.7,1.4,15.7,17c0,5.5,0.4,21.8,2,25.4h-17.8c-2.4-5.3-1.9-11.2-1.9-16.8c0-10.3,1-19.1-13-19.1h-4.7V598.5z M194.3,549.3
			h8c7.2,0,9.2-7.2,9.2-12.7c0-8.3-3.5-11.4-9.2-11.4h-8V549.3z"/>
		<path fill="#FFFFFF" d="M258,570.9c0,7.2,0.2,18,7.7,18c6,0,7.2-5.8,7.2-10.8h17.2c-0.2,6.6-2.4,12-6.5,15.7
			c-4,3.7-10,5.9-17.9,5.9c-21.8,0-24.7-13.3-24.7-32.3c0-16.6,2.4-30.7,24.7-30.7c22.8,0,25.3,14.8,24.7,34.2H258z M273.5,561.4
			c0-5.9,0.2-14.3-7.8-14.3c-7.8,0-7.7,9.1-7.7,14.3H273.5z"/>
		<path fill="#FFFFFF" d="M318.5,537.9v6.7h0.2c3.1-5.9,7.8-7.9,14.3-7.9c17.5,0,16.9,19.4,16.9,31.9c0,12.2,0.5,31.1-16.6,31.1
			c-6.1,0-10.3-1.8-13.8-7h-0.2v31.8h-16.9v-86.6H318.5z M333.4,567.6c0-12.1,0.1-20.5-7.2-20.5c-7,0-6.8,8.4-6.8,20.5
			c0,15.2,1.1,21.6,6.8,21.6C332.3,589.2,333.4,582.9,333.4,567.6z"/>
		<path fill="#FFFFFF" d="M361,567.4c0-16.6,2.4-30.7,24.7-30.7c22.3,0,24.7,14.2,24.7,30.7c0,19-2.9,32.3-24.7,32.3
			C363.9,599.7,361,586.4,361,567.4z M393.5,566.4c0-12.6-0.6-19-7.8-19c-7.2,0-7.8,6.4-7.8,19c0,18.5,1.6,22.4,7.8,22.4
			C392,588.9,393.5,584.9,393.5,566.4z"/>
		<path fill="#FFFFFF" d="M438.5,537.9v7.8h0.2c3.1-7,8.9-9,15.7-9v15.1c-14.9-1-15.1,7.7-15.1,13.7v33h-16.9v-60.6H438.5z"/>
		<path fill="#FFFFFF" d="M455.6,537.9h6.8v-9.6l16.9-7.6v17.2h8.8v10.4h-8.8v32.4c0,4.6-0.1,7.6,5.4,7.6c1.1,0,2.2,0,3-0.2v10.4
			c-2.3,0.2-4.7,0.6-8.8,0.6c-14.6,0-16.6-9.7-16.6-13.4v-37.3h-6.8V537.9z"/>
		<path fill="#FFFFFF" d="M509.1,579c-0.1,2.8,0,5.4,0.8,7.3c1,1.9,2.8,2.9,6.1,2.9c3.4,0,6.2-2.2,6.2-6.2c0-12.8-29.8-10-29.8-29.3
			c0-13.1,13-17,23.9-17c11.5,0,22,5.5,21,18.6h-16.6c0-4.2-0.5-6.7-1.7-7.8c-1.1-1.1-2.5-1.3-4.3-1.3c-3.7,0-5.8,2.4-5.8,6.5
			c0,9.6,29.8,9.1,29.8,28.6c0,10.6-8.6,18.5-22.7,18.5c-14.8,0-24.6-3.7-23.6-20.6H509.1z"/>
	</g>
	<g enable-background="new    ">
		<path fill="#FFFFFF" d="M176.9,651.7h30.2c23.8,0,28.2,15.8,28.2,42.8c0,13.3,2,43.8-28.9,43.8h-29.5V651.7z M195,725h8.8
			c11,0,13.2-8.3,13.2-30c0-16,0-30-12.6-30H195V725z"/>
		<path fill="#FFFFFF" d="M264.6,710.7c0,7.2,0.2,18,7.7,18c6,0,7.2-5.8,7.2-10.8h17.2c-0.2,6.6-2.4,12-6.5,15.7
			c-4,3.7-10,5.9-17.9,5.9c-21.8,0-24.7-13.3-24.7-32.3c0-16.6,2.4-30.7,24.7-30.7c22.8,0,25.3,14.8,24.7,34.2H264.6z M280.1,701.3
			c0-5.9,0.2-14.3-7.8-14.3c-7.8,0-7.7,9.1-7.7,14.3H280.1z"/>
		<path fill="#FFFFFF" d="M322.4,718.9c-0.1,2.8,0,5.4,0.8,7.3c1,1.9,2.8,2.9,6.1,2.9s6.2-2.2,6.2-6.2c0-12.8-29.8-10-29.8-29.3
			c0-13.1,13-17,23.9-17c11.5,0,22,5.5,21,18.6h-16.6c0-4.2-0.5-6.7-1.7-7.8c-1.1-1.1-2.5-1.3-4.3-1.3c-3.7,0-5.8,2.4-5.8,6.5
			c0,9.6,29.8,9.1,29.8,28.6c0,10.6-8.6,18.5-22.7,18.5c-14.8,0-24.6-3.7-23.6-20.6H322.4z"/>
		<path fill="#FFFFFF" d="M393.2,699.3c0-9-2.3-12-7.6-12c-7.2,0-7.8,6.4-7.8,19c0,18.5,1.6,22.4,7.8,22.4c5.3,0,7.8-4.8,7.8-12.7
			h16.9c0,16.4-8.9,23.5-24.7,23.5c-21.8,0-24.7-13.3-24.7-32.3c0-16.6,2.4-30.7,24.7-30.7c15.6,0,24.5,7,24.5,22.8H393.2z"/>
		<path fill="#FFFFFF" d="M438.4,677.7v7.8h0.2c3.1-7,8.9-9,15.7-9v15.1c-14.9-1-15.1,7.7-15.1,13.7v33h-16.9v-60.6H438.4z"/>
		<path fill="#FFFFFF" d="M480.6,651.7V665h-16.9v-13.3H480.6z M480.6,738.3h-16.9v-60.6h16.9V738.3z"/>
		<path fill="#FFFFFF" d="M511.7,677.7v6.7h0.2c3.1-5.9,7.8-7.9,14.3-7.9c17.5,0,16.9,19.4,16.9,31.9c0,12.2,0.5,31.1-16.6,31.1
			c-6.1,0-10.3-1.8-13.8-7h-0.2v31.8h-16.9v-86.6H511.7z M526.6,707.5c0-12.1,0.1-20.5-7.2-20.5c-7,0-6.8,8.4-6.8,20.5
			c0,15.2,1.1,21.6,6.8,21.6C525.5,729.1,526.6,722.7,526.6,707.5z"/>
		<path fill="#FFFFFF" d="M548.8,677.7h6.8v-9.6l16.9-7.6v17.2h8.8v10.4h-8.8v32.4c0,4.6-0.1,7.6,5.4,7.6c1.1,0,2.2,0,3-0.2v10.4
			c-2.3,0.2-4.7,0.6-8.8,0.6c-14.6,0-16.6-9.7-16.6-13.4v-37.3h-6.8V677.7z"/>
		<path fill="#FFFFFF" d="M607.4,651.7V665h-16.9v-13.3H607.4z M607.4,738.3h-16.9v-60.6h16.9V738.3z"/>
		<path fill="#FFFFFF" d="M620.9,707.3c0-16.6,2.4-30.7,24.7-30.7c22.3,0,24.7,14.2,24.7,30.7c0,19-2.9,32.3-24.7,32.3
			C623.8,739.5,620.9,726.2,620.9,707.3z M653.4,706.3c0-12.6-0.6-19-7.8-19c-7.2,0-7.8,6.4-7.8,19c0,18.5,1.6,22.4,7.8,22.4
			C651.9,728.7,653.4,724.8,653.4,706.3z"/>
		<path fill="#FFFFFF" d="M699.3,683.9h0.2c1.7-2.8,3.7-4.6,6-5.6c2.4-1.2,5.2-1.7,8.3-1.7c8,0,15.1,4.8,15.1,13.2v48.6H712v-41.8
			c0-5.4-1-9.6-6.4-9.6c-5.4,0-6.4,4.2-6.4,9.6v41.8h-16.9v-60.6h16.9V683.9z"/>
		<path fill="#FFFFFF" d="M755.7,718.9c-0.1,2.8,0,5.4,0.8,7.3c1,1.9,2.8,2.9,6.1,2.9c3.4,0,6.2-2.2,6.2-6.2
			c0-12.8-29.8-10-29.8-29.3c0-13.1,13-17,23.9-17c11.5,0,22,5.5,21,18.6h-16.6c0-4.2-0.5-6.7-1.7-7.8c-1.1-1.1-2.5-1.3-4.3-1.3
			c-3.7,0-5.8,2.4-5.8,6.5c0,9.6,29.8,9.1,29.8,28.6c0,10.6-8.6,18.5-22.7,18.5c-14.8,0-24.6-3.7-23.6-20.6H755.7z"/>
	</g>
	<circle fill="#FFFFFF" cx="136" cy="426.7" r="18"/>
	<circle fill="#FFFFFF" cx="136" cy="561.8" r="18"/>
	<circle fill="#FFFFFF" cx="136" cy="701.7" r="18"/>
</g>
</svg>
